<!DOCTYPE svg PUBLIC "-//W3C//DTD SVG 1.1//EN" "http://www.w3.org/Graphics/SVG/1.1/DTD/svg11.dtd">
<!-- Uploaded to: SVG Repo, www.svgrepo.com, Transformed by: SVG Repo Mixer Tools -->
<svg fill="#000000" height="800px" width="800px" version="1.1" id="Layer_1" xmlns="http://www.w3.org/2000/svg" xmlns:xlink="http://www.w3.org/1999/xlink" viewBox="0 0 511.999 511.999" xml:space="preserve">
<g id="SVGRepo_bgCarrier" stroke-width="0"/>
<g id="SVGRepo_tracerCarrier" stroke-linecap="round" stroke-linejoin="round"/>
<g id="SVGRepo_iconCarrier"> <g> <g> <path d="M207.043,106.899h-32.787c-54.523,0-98.88,44.357-98.88,98.88v32.787c0,5.633,4.566,10.199,10.199,10.199h32.787 c54.523,0,98.88-44.357,98.88-98.88v-32.787C217.242,111.465,212.675,106.899,207.043,106.899z M196.844,149.886 c0,43.275-35.208,78.482-78.482,78.482h-8.164l35.724-35.724c3.983-3.983,3.983-10.441,0-14.424 c-3.984-3.983-10.44-3.983-14.425,0l-35.723,35.724v-8.165c0-43.274,35.207-78.481,78.482-78.481h22.588V149.886z"/> </g> </g> <g> <g> <path d="M175.966,148.174c-3.984-3.983-10.44-3.983-14.425,0l-4.122,4.123c-3.983,3.983-3.983,10.441,0,14.425 c1.993,1.992,4.603,2.987,7.213,2.987c2.611,0,5.22-0.995,7.212-2.987l4.122-4.123 C179.949,158.616,179.949,152.158,175.966,148.174z"/> </g> </g> <g> <g> <path d="M501.8,191.988H392.555c-5.632,0-10.199,4.566-10.199,10.199v8.949l-28.633-0.014c-0.021,0-0.04,0-0.06,0 c-18.731,0-36.76,3.348-53.577,9.949l-0.29,0.113c-0.152,0.06-0.303,0.122-0.451,0.19l-139.18,62.382 c-9.656,3.613-17.367,10.732-21.741,20.084c-3.475,7.431-4.517,15.575-3.083,23.487l-96.012-0.542c-0.058,0-0.113,0-0.172,0 c-21.512,0-39.062,17.454-39.156,38.985c-0.094,21.59,17.395,39.233,38.985,39.329c0.016,0,0.032,0,0.048,0 c0.029,0,0.058,0,0.086,0l89.222-0.778c30.363-0.196,59.885-6.414,87.746-18.482l138.858-60.141 c0.136-0.059,0.27-0.12,0.404-0.186c7.433-3.612,14.832-5.976,22.001-7.034h5.008v39.384c0,5.633,4.567,10.199,10.199,10.199 H501.8c5.632,0,10.199-4.566,10.199-10.199V202.187C511.999,196.554,507.432,191.988,501.8,191.988z M382.356,298.079h-5.728 c-0.462,0-0.923,0.032-1.381,0.094c-9.448,1.291-19.072,4.283-28.61,8.892l-138.66,60.055 c-25.329,10.97-52.167,16.623-79.792,16.802L39.014,384.7c-10.314-0.079-18.661-8.518-18.617-18.842 c0.045-10.314,8.452-18.676,18.746-18.676c0.027,0,0.055,0,0.082,0l106.966,0.604c7.265,7.149,17.135,11.269,27.458,11.269 c3.761,0,7.584-0.547,11.36-1.691c0.402-0.122,0.794-0.268,1.178-0.439l83.614-37.124c5.149-2.286,7.469-8.312,5.183-13.461 c-2.285-5.146-8.311-7.468-13.46-5.183L178.549,338c-9.182,2.488-18.774-2.336-22.292-11.188 c-1.703-4.708-1.476-9.796,0.645-14.332c2.122-4.539,5.886-7.98,10.596-9.688c0.234-0.085,0.466-0.178,0.694-0.28l139.273-62.424 l0.067-0.026c14.441-5.668,29.96-8.542,46.13-8.542c0.017,0,0.036,0,0.053,0l28.642,0.015V298.079z M424.234,347.661h-21.48 V212.386h21.48V347.661z M491.601,347.662h-46.969V212.386h46.969V347.662z"/> </g> </g> </g>
</svg>